<?xml version="1.0" standalone="no"?><!DOCTYPE svg PUBLIC "-//W3C//DTD SVG 1.1//EN" "http://www.w3.org/Graphics/SVG/1.1/DTD/svg11.dtd"><svg t="1665579826352" class="icon" viewBox="0 0 1024 1024" version="1.1" xmlns="http://www.w3.org/2000/svg" p-id="1884" width="40" height="40" xmlns:xlink="http://www.w3.org/1999/xlink"><path d="M512 661.7c90.5 0 163.8-73.4 163.8-163.8 0-90.5-73.3-163.8-163.8-163.8-58.5 0-112.6 31.2-141.9 81.9-29.3 50.7-29.3 113.2 0 163.8 29.3 50.7 83.4 81.9 141.9 81.9z m-70.9-122.8c-14.6-25.3-14.6-56.7 0-81.9 14.6-25.3 41.8-41 70.9-41 45.2 0 81.9 36.8 81.9 81.9s-36.8 81.9-81.9 81.9c-29.2 0-56.4-15.7-70.9-40.9z" p-id="1885" fill="#1296db"></path><path d="M512 215m-81.9 0a81.9 81.9 0 1 0 163.8 0 81.9 81.9 0 1 0-163.8 0Z" p-id="1886" fill="#1296db"></path><path d="M843.8 919.6H713.5l-69.4-142.3c149.8-54.1 257-197.2 257-365.6 0-214.9-174.2-389.1-389.1-389.1-139 0-267.5 74.2-337 194.6-69.5 120.4-69.5 268.7 0 389.1a389.01 389.01 0 0 0 211.7 173.8l-68 139.5H188.4c-22.5 0-41 18.4-41 41 0 22.5 18.4 41 41 41h655.4c22.5 0 41-18.4 41-41-0.1-22.6-18.5-41-41-41zM246 565.3c-54.7-94.7-54.7-212.5 0-307.2 54.7-94.8 156.7-153.6 266.1-153.6 169.4 0 307.2 137.8 307.2 307.2S681.4 718.8 512 718.8c-109.4 0-211.3-58.8-266-153.5z m223 232.9c14.2 1.6 28.5 2.6 43 2.6 17.2 0 34-1.5 50.6-3.7l59.7 122.4H409.8L469 798.2z" p-id="1887" fill="#1296db"></path></svg>