<?xml version="1.0" standalone="no"?><!DOCTYPE svg PUBLIC "-//W3C//DTD SVG 1.1//EN" "http://www.w3.org/Graphics/SVG/1.1/DTD/svg11.dtd"><svg t="1672976438500" class="icon" viewBox="0 0 1024 1024" version="1.1" xmlns="http://www.w3.org/2000/svg" p-id="2159" width="16" height="16" xmlns:xlink="http://www.w3.org/1999/xlink"><path d="M928 480h-33.322C879.287 293.448 730.552 144.713 544 129.322V96c0-17.6-14.4-32-32-32s-32 14.4-32 32v33.322C293.448 144.713 144.713 293.448 129.322 480H96c-17.6 0-32 14.4-32 32s14.4 32 32 32h33.322C144.713 730.552 293.448 879.287 480 894.678V928c0 17.6 14.4 32 32 32s32-14.4 32-32v-33.322C730.552 879.287 879.287 730.552 894.678 544H928c17.6 0 32-14.4 32-32s-14.4-32-32-32zM544 830.412V800c0-17.6-14.4-32-32-32s-32 14.4-32 32v30.412C328.821 815.401 208.599 695.179 193.588 544H224c17.6 0 32-14.4 32-32s-14.4-32-32-32h-30.412C208.599 328.821 328.821 208.599 480 193.588V224c0 17.6 14.4 32 32 32s32-14.4 32-32v-30.412C695.179 208.599 815.401 328.821 830.412 480H800c-17.6 0-32 14.4-32 32s14.4 32 32 32h30.412C815.401 695.179 695.179 815.401 544 830.412z" p-id="2160" fill="#dbdbdb"></path><path d="M512 352c-88.366 0-160 71.634-160 160s71.634 160 160 160 160-71.634 160-160-71.634-160-160-160z m0 256c-53.019 0-96-42.981-96-96s42.981-96 96-96 96 42.981 96 96-42.981 96-96 96z" p-id="2161" fill="#dbdbdb"></path></svg>